<svg width="15" height="22" viewBox="0 0 15 22" fill="none" xmlns="http://www.w3.org/2000/svg">
  <mask id="favicon-mask-1" fill="white">
    <path d="M1 3C1 1.89543 1.89543 1 3 1H9C12.3137 1 15 3.68629 15 7H1V3Z"/>
  </mask>
  <path d="M1 3C1 1.89543 1.89543 1 3 1H9C12.3137 1 15 3.68629 15 7H1V3Z" fill="#C3002F"/>
  <path d="M1 7H0V8H1V7ZM15 7M3 1V2H9V1V0H3V1ZM15 7M15 7V6H1V7V8H15V7ZM1 7H2V3H1H0V7H1ZM9 1V2C11.7614 2 14 4.23858 14 7H15H16C16 3.13401 12.866 0 9 0V1ZM3 1V0C1.34315 0 0 1.34315 0 3H1H2C2 2.44772 2.44772 2 3 2V1Z" fill="black" mask="url(#favicon-mask-1)"/>
  <mask id="favicon-mask-2" fill="white">
    <path d="M1 7H15V15C15 18.3137 12.3137 21 9 21H3C1.89543 21 1 20.1046 1 19V7Z"/>
  </mask>
  <path d="M1 7H15V15C15 18.3137 12.3137 21 9 21H3C1.89543 21 1 20.1046 1 19V7Z" fill="white"/>
  <path d="M1 7H15H1M16 15C16 18.866 12.866 22 9 22H3C1.34315 22 0 20.6569 0 19H2C2 19.5523 2.44772 20 3 20H9C11.7614 20 14 17.7614 14 15H16ZM3 22C1.34315 22 0 20.6569 0 19V7H2V19C2 19.5523 2.44772 20 3 20V22ZM16 7V15C16 18.866 12.866 22 9 22V20C11.7614 20 14 17.7614 14 15V7H16Z" fill="black" mask="url(#favicon-mask-2)"/>
  <path d="M11.5 17L11.7782 17.4155V17.4155L11.5 17ZM15 15C15 14.7239 14.7761 14.5 14.5 14.5C14.2239 14.5 14 14.7239 14 15H14.5H15ZM9 20.5V21C9.71057 21 10.2441 20.8154 10.6114 20.429C10.9606 20.0617 11.084 19.5857 11.156 19.19C11.2379 18.7403 11.2561 18.423 11.3535 18.0763C11.4396 17.7697 11.5637 17.559 11.7782 17.4155L11.5 17L11.2218 16.5845C10.7384 16.9082 10.5136 17.3687 10.3907 17.8059C10.2791 18.2031 10.2283 18.7024 10.1722 19.0109C10.1062 19.3734 10.0225 19.5972 9.88665 19.74C9.7689 19.8639 9.53943 20 9 20V20.5ZM11.5 17L11.7782 17.4155C12.0393 17.2406 12.3257 17.1462 12.6373 17.0799C12.795 17.0463 12.9514 17.0213 13.1173 16.9944C13.2778 16.9684 13.4512 16.9399 13.617 16.9006C13.9464 16.8226 14.3231 16.6856 14.6029 16.3511C14.8839 16.0152 15 15.5623 15 15H14.5H14C14 15.4377 13.9083 15.6229 13.8359 15.7095C13.7623 15.7974 13.6398 15.8675 13.3865 15.9275C13.2609 15.9573 13.122 15.9806 12.9571 16.0073C12.7976 16.0332 12.6154 16.0621 12.4291 16.1018C12.0528 16.1819 11.6297 16.3115 11.2218 16.5845L11.5 17Z" fill="black"/>
  <path d="M0.5 17H2.5M0.5 13H2.5M0.5 9H2.5M0.5 5H2.5" stroke="black" stroke-linecap="round"/>
  <path d="M11.072 13.496C11.296 13.496 11.464 13.56 11.576 13.688C11.688 13.816 11.744 13.9707 11.744 14.152C11.744 14.3387 11.688 14.496 11.576 14.624C11.464 14.7467 11.296 14.808 11.072 14.808H8.816V16.648H7.184V14.808H4.928C4.704 14.808 4.536 14.7467 4.424 14.624C4.312 14.496 4.256 14.3387 4.256 14.152C4.256 13.9707 4.312 13.816 4.424 13.688C4.536 13.56 4.704 13.496 4.928 13.496H11.072ZM10.712 9.272C10.8987 9.272 11.04 9.34133 11.136 9.48C11.232 9.61333 11.28 9.76533 11.28 9.936C11.28 10.1013 11.2293 10.2533 11.128 10.392C11.032 10.5253 10.8933 10.592 10.712 10.592H6.456C6.38133 10.592 6.328 10.6053 6.296 10.632C6.26933 10.6533 6.256 10.6987 6.256 10.768V11.44C6.256 11.5093 6.272 11.56 6.304 11.592C6.336 11.6187 6.38667 11.632 6.456 11.632H10.808C10.9893 11.632 11.128 11.7013 11.224 11.84C11.3253 11.9733 11.376 12.12 11.376 12.28C11.376 12.4453 11.3253 12.5973 11.224 12.736C11.1227 12.8693 10.984 12.936 10.808 12.936H5.824C5.392 12.936 5.08533 12.8533 4.904 12.688C4.728 12.5227 4.64 12.2347 4.64 11.824V10.376C4.64 9.97067 4.728 9.68533 4.904 9.52C5.08533 9.35467 5.392 9.272 5.824 9.272H10.712Z" fill="#C3002F"/>
</svg>
